<?xml version="1.0" encoding="utf-8"?>
<svg version="1.1" id="Layer_1" xmlns="http://www.w3.org/2000/svg" xmlns:xlink="http://www.w3.org/1999/xlink" x="0px" y="0px"
	 viewBox="0 0 2393 1085" enable-background="new 0 0 2393 1085" xml:space="preserve">
<g>
	<linearGradient id="SVGID_1_" gradientUnits="userSpaceOnUse" x1="1196.5" y1="-9.094947e-13" x2="1196.5" y2="1085">
		<stop  offset="0" style="stop-color:#FE754B"/>
		<stop  offset="1" style="stop-color:#E9BC49"/>
	</linearGradient>
	<rect fill="url(#SVGID_1_)" width="2393" height="1085"/>
	<path fill="#FB9D6F" stroke="#FB9D6F" stroke-width="0.5" d="M1881.06,156.97c9.02-1.03,17.77-4.07,26.93-3.95
		c12.09,0.07,24.09,1.8,36.07,3.23c17.24,2.31,34.54,4.41,51.53,8.21c11.19,2.39,21.89,7.07,33.43,7.77
		c25.25,2.01,50.63,1.64,75.95,1.68c44.6,0.75,89.31,0.18,133.77,4.36c-5.5,1.24-11.14,1.1-16.72,0.95
		c-63.33,0-126.66-0.01-189.98,0c-10.01,0.62-19.94,2.3-29.99,2.45c-44.02,1.45-88.08-0.07-132.07-2.04
		c-7.67-0.55-15.33,0.23-22.98,0.67c-22.63,1.19-45.29,1.88-67.95,2.38c-15.03,0.38-30.05-0.61-45.07-0.78
		c-21.99-0.53-43.97,1.1-65.95,0.27c-28.89-0.39-57.7-2.84-86.51-4.8c-10.13-1.18-20.3-2-30.42-3.18
		c-8.59-1.22-17.41-1.45-25.66-4.3c9.12-1.65,18.44-1.42,27.67-2.03c86.61-3.71,173.27-6.27,259.91-9.04
		c7.99,0.25,15.95,1.41,23.96,0.87C1851.69,159.16,1866.44,158.79,1881.06,156.97z"/>
	<path fill="#FA9D6F" stroke="#FA9D6F" stroke-width="0.5" d="M97.46,173.29c2.18-0.27,4.35-0.5,6.54-0.6
		c293,0.02,586.01,0,879.01,0.01c7.83,0.12,15.7-0.44,23.5,0.59c-8.77,1.09-17.62,0.91-26.42,1.38
		c-21.85,0.94-43.72,1.46-65.56,2.68c-22.85,0.35-45.69,1.64-68.53,2.37c-160.4,5.85-320.79,12.01-481.25,15.76
		c7.33,1.33,14.76,1.84,22.14,2.82c42.22,5.24,84.34,11.4,126.31,18.36c-25.27,1.26-50.59,1.07-75.88,1.74
		c-79.42,1.31-158.86,2.42-238.3,1.99c-16.34-0.25-32.7-0.25-49.01-1.36c-3.1-0.19-6.12-0.9-9.06-1.83
		c7.59-4.9,16.6-6.68,25.19-9.06c20.88-5.46,42.17-9.1,63.24-13.64c-31.77-5.27-63.62-10.09-95.42-15.22
		c-4.46-0.75-8.93-1.44-13.43-1.89C112.88,175.81,105.07,175.09,97.46,173.29z"/>
	<path fill="#E4553B" stroke="#E4553B" stroke-width="0.5" d="M622.63,243.91c9.64-1.49,19.89-1.73,28.77,2.92
		c-5.04-0.68-10.07-1.43-15.11-2.05C631.76,244.17,627.2,243.82,622.63,243.91z"/>
	<path fill="#F5573D" stroke="#F5573D" stroke-width="0.5" d="M598.85,247.7c6.61-1.01,13.12-2.55,19.74-3.44
		c5.08,3.71,9.06,8.73,11.56,14.49c7.83,17.28,11.84,35.99,15.43,54.53c3.19,18.73,6.59,37.69,5.39,56.77
		c-0.55,25.93-0.13,51.87,0.61,77.8c0.72,18.52,0.93,37.35,6.11,55.3c6.43,23.32,19.49,45.51,39.29,59.86
		c7.96,5.88,17.31,9.46,26.71,12.3c19.63,5.98,39.95,9.37,60.34,11.42c7.76,0.65,15.53,1.64,23.34,1.22
		c-14.92-6.74-29.93-13.29-44.47-20.82c-12.07-6.29-24.19-12.69-35.04-20.97c-4.99-3.71-8.84-8.72-11.75-14.17
		c-8.16-15.03-14.12-31.11-20.07-47.1c-1.21-3.18-2.02-6.51-2.2-9.91c-1.37-27.78-2.84-55.56-4.27-83.35
		c-0.93-20.87-2.47-41.72-2.81-62.62c-0.11-9.61-0.07-19.28,1.5-28.79c1.61-14.68-1.14-29.36-2.37-43.96
		c4.36,2.52,9.49,1.32,14.18,0.69c17.08-2.65,34.33-4.88,51.66-4.07c11.7,26.49,18.48,55.19,19.69,84.14
		c1.17,24.13-5.02,48.46,0.08,72.41c2.86,11.3,8.08,21.96,9.71,33.59c1.7,8.36-0.15,17.33,3.44,25.3
		c4.75,10.95,15.16,18.16,20.08,29.02c2.08,4.45,2.5,9.4,3.8,14.09c1.58,5.78,5.39,10.71,6.59,16.63c1.65,7.84,1.25,15.94,1.02,23.9
		c-0.12,5.93-1.32,11.85-0.75,17.79c2.06,0.35,3.29-1.63,4.28-3.09c7.49-13.43,10.36-29.52,7.02-44.62
		c-2.17-10.29-6.38-20.04-11.55-29.15c-5.17-9.15-12.4-17.16-15.91-27.2c-5.77-16.2-7.16-33.6-6.99-50.68
		c-0.01-7.7,0.29-15.45-0.8-23.1c-0.88-6.36-3.75-12.36-3.68-18.86c0.09-16.13,5.8-31.85,4.39-48.05c-0.58-8.85-6.53-15.97-8.9-24.3
		c-4.16-11.01-3.08-23.23-7.65-34.1c11.88,8.15,27.04,7.65,39.59,14.18c6.4,3.12,7.91,10.77,9.22,17.08
		c3.14,18.64,2.72,37.63,2.76,56.46c-0.3,7.21-0.08,14.44-0.21,21.65c0.07,3.35-0.13,6.83,0.99,10.05c1.94,1.18,4.19,1.68,6.34,2.36
		c0.35,9.79-3.32,19.63-0.38,29.29c3.7-2.44,7.14-6.98,12.12-5.77c6.33,1.48,11.48,6.9,13.03,13.17c1.44,6.28,6.51,10.7,11.52,14.29
		c3.32,2.21,7.02,4.4,11.14,4.36c2.14-2.2,1.87-5.51,1.8-8.34c-0.54-7.14-1.86-14.2-2.51-21.33c-2.81-21.46,4.71-42.56,3.36-64.05
		c-0.08-9.1-2.37-18.67,1.23-27.39c1.32-3.55,4.3-6.13,7.67-7.69c1.04,2.6,2.39,5.14,2.68,7.97c0.41,4.01-0.03,8.13,1.01,12.07
		c1.09,4.32,2.84,8.52,3.07,13.03c0.45,6.99,0.43,14.04-0.41,21.01c-1.75,12.24-0.62,24.64,0.13,36.92
		c0.59,12.85,4.9,25.09,6.74,37.76c0.68,5.45-0.28,11.29,2.43,16.33c4.14,8.41,5.31,17.79,7.61,26.77c0.55,13.49,1.83,27,4.21,40.3
		c3.77,14.62,10.97,28.15,14.1,42.97c1.45,6.37,0.79,12.94,1.07,19.42c8.38,3.14,13.85,10.54,20.41,16.23
		c9.24,9.11,18.43,18.35,26.53,28.52c4.11,5.01,6.4,11.25,10.72,16.12c7.09,8.18,15.7,14.96,24.82,20.74
		c-58.64,2.53-117.28,5.08-175.92,7.53c-24.64,0.98-49.28,2.19-73.93,2.85c10.11,0.94,20.27,0.25,30.4,0.04
		c61.34-1.48,122.68-3.01,184.02-4.48c16.36-0.72,32.78-0.23,49.11-1.61c7.84,0.05,14.55,4.53,20.98,8.48
		c13.91,8.93,27.6,18.34,42.62,25.35c20.01,9.02,39.1,20.79,54.5,36.58c5.16,4.51,12.3,5.46,18.67,7.37
		c9.66,2.54,19.4,4.76,29.23,6.51c7.19,1.31,14.63,1.26,21.61,3.67c13.26,4.38,26.32,9.35,39.34,14.39
		c-5.43-0.18-10.69,1.31-15.97,2.3c-22.36,4.32-44.63,9.07-67.05,13.05c-9.91,1.75-20.02,1.33-30.02,1.91
		c-103.18,3.84-206.44,5.76-309.68,6.35c-32.75,0.25-65.5,0.18-98.25,0.62c-7.6,0.38-15.45-0.61-22.82,1.66
		c7.25,1.92,14.8,2.07,22.24,2.72c32.46,2.14,64.98,3.09,97.5,3.85c46.01,1.15,92.02,0.69,138.04,0.78
		c53.35,0.01,106.7-0.21,160.05-1.34c25.38-0.75,50.94-1.1,75.99-5.81c17.57-2.77,34.91-6.83,52.06-11.57
		c8.3-2.07,16.59-5.03,25.28-4.77c7.42,3.32,15.22,5.67,22.95,8.14c5.65,1.79,11.44,3.16,17.36,3.63
		c73.38,9.28,146.87,17.73,220.27,26.87c7.32,1.08,14.43-1.63,21.6-2.68c92.71-17.49,186.49-28.73,280.45-36.86
		c93.67-7.97,187.6-12.67,281.57-15.16c11.77-0.59,23.57-0.51,35.37-0.76c28-1.22,56.05-0.46,84.06-1.53
		c36.67-0.03,73.35-0.43,110.02,0.02c10.98,0.14,22-0.47,32.96,0.65V1085H0V807.25c11.99,0.4,23.99-0.18,35.98-0.08
		c26.69,0.06,53.38-0.14,80.07,0.12c5.89,0.08,11.16-2.81,16.55-4.75c19.17-7.24,38.47-14.16,58.17-19.8
		c10.52-3.82,20.89-8.24,30.61-13.8c10.81-1.49,21.71-2.61,32.63-2.46c106.3,2.82,212.61,5.95,318.93,7.46
		c19.01,0.29,38.01-0.7,57.02-0.43c42.01-0.42,84.01-0.45,126.01-1.41c7.28-0.34,14.66,0.07,21.83-1.5
		c-13.9-1.64-27.93-1.35-41.89-1.96c-113.28-2.84-226.59-4.5-339.88-6.36c-46.75-0.55-93.51-1.27-140.21-3.58
		c13.63-5.38,25.53-14.2,37.58-22.38c6.36-4.71,13.54-8.44,18.97-14.31c4.74-4.76,9.04-10.23,15.13-13.34
		c161.5,3.33,323,7.04,484.49,10.63c11.82,0.37,23.65,0.97,35.47,0.23c-7.8-0.63-15.63-0.13-23.43-0.55
		c-155.68-6.24-311.34-12.96-467-19.69c-4.49-0.11-8.97,0.5-13.31,1.62c7.99-3.98,16.29-7.42,23.72-12.43
		c22.51-13.3,46.55-24.04,67.96-39.17c10.56-7.04,21.14-14.07,31.47-21.45c4.57-3.4,9.56-6.47,13.03-11.1
		c23.29,2.41,46.72,2.93,70.1,3.96c51.34,1.91,102.7,3.31,154.06,4.64c65.32,1.36,130.58,4.74,195.86,7.16
		c12.74,1.16,25.43-0.74,38.13-1.58c9.03-0.8,18.1-1.21,27.11-2.24c-11.73,0.36-23.46-0.49-35.18-0.89
		c-83.01-3.74-165.99-8.23-248.97-12.59c-64.81-3.51-129.62-6.85-194.41-10.59c11.65-7.87,22.76-16.53,33.4-25.72
		c7.6-7.47,17.3-12.15,26.32-17.61c5.49-3.29,11.24-6.12,16.61-9.58c0.01-0.43,0.03-1.3,0.04-1.73c1.8,2.04,3.9,3.79,6.04,5.48
		c0.62-18.15,0.04-36.32-0.06-54.48c-0.38-28.35-2.04-56.67-2.19-85.02c-0.01-43.17,1.84-86.44,7.84-129.23
		c0.88-6.1,2.32-12.18,1.95-18.39c0.53-4.51,1.29-9.1,3.47-13.15C585.52,251.09,592.11,248.76,598.85,247.7 M846.77,470.55
		c5.64,18.89,12.65,37.38,18.44,56.22c1.2,17.7,1.14,35.55,3.56,53.16c0.36,4.43,3.65,7.65,6.11,11.07
		c5.04,6.53,9.74,13.33,14.88,19.79c0.31,1.74,1.69,2.94,2.71,4.31c-1.59-11.79-5.89-23.16-6.06-35.14
		c-0.64-13.97-1.5-27.93-2.14-41.91c0.05-4.35-2.76-7.83-4.79-11.42c-5.14-8.87-10.27-17.75-15.42-26.62
		c-2.29-3.88-4.19-8.05-7.27-11.4C853.84,482.39,850.34,476.42,846.77,470.55 M737.49,682.75c3.5,0.4,7.04,0.37,10.57,0.28
		c6.78-0.17,13.6,0.38,20.35-0.57c-3.65-1.4-7.58-0.56-11.36-0.51C750.53,682.23,743.93,681.45,737.49,682.75 M716.34,683.41
		c5.4,1.03,10.95,0.8,16.39,0.14C727.35,682.33,721.77,682.99,716.34,683.41 M848.35,719.99c3.05,1.29,6.41,0.93,9.64,1
		c6.17-0.06,12.36,0.28,18.52-0.33c-4.77-1.11-9.68-0.56-14.52-0.66C857.44,719.96,852.88,719.38,848.35,719.99z"/>
	<path fill="#BC4131" stroke="#BC4131" stroke-width="0.5" d="M618.59,244.26c1.34-0.13,2.69-0.25,4.04-0.35
		c4.57-0.09,9.13,0.26,13.66,0.87c-2.23-0.01-4.45,0.1-6.66,0.21c6.44,5.68,13.48,10.74,19.09,17.32
		c9.55,10.51,16.28,23.66,18.42,37.75c2.65,14.24-0.05,28.66,0.09,42.99c-0.02,26.63,0,53.27,0,79.9
		c-0.06,19.36,0.01,38.74-1.18,58.06c-0.5,8.99,6.59,15.72,13.02,20.9c5.84,5.09,13.29,8.91,16.92,16.08
		c4.58,9.21,7.61,19.1,11.97,28.41c-0.71-11.1-3.62-21.96-6.8-32.57c-1.78-6.52-7.78-10.25-11.83-15.23
		c-3.93-4.71-7.93-9.37-11.67-14.23c-1.73-2.05-2.2-4.75-2.15-7.35c0.1-47.01,0.32-94.03,1.72-141.03c0.4-12.66,1.5-25.33,0.76-38
		c-0.41-6.32,0.36-12.64,1.38-18.87c1.32-7.81,2.27-15.98,6.52-22.86c1.23,14.6,3.98,29.28,2.37,43.96
		c-1.57,9.51-1.61,19.18-1.5,28.79c0.34,20.9,1.88,41.75,2.81,62.62c1.43,27.79,2.9,55.57,4.27,83.35c0.18,3.4,0.99,6.73,2.2,9.91
		c5.95,15.99,11.91,32.07,20.07,47.1c2.91,5.45,6.76,10.46,11.75,14.17c10.85,8.28,22.97,14.68,35.04,20.97
		c14.54,7.53,29.55,14.08,44.47,20.82c-7.81,0.42-15.58-0.57-23.34-1.22c-20.39-2.05-40.71-5.44-60.34-11.42
		c-9.4-2.84-18.75-6.42-26.71-12.3c-19.8-14.35-32.86-36.54-39.29-59.86c-5.18-17.95-5.39-36.78-6.11-55.3
		c-0.74-25.93-1.16-51.87-0.61-77.8c1.2-19.08-2.2-38.04-5.39-56.77c-3.59-18.54-7.6-37.25-15.43-54.53
		C627.65,252.99,623.67,247.97,618.59,244.26z"/>
	<path fill="#98372D" stroke="#98372D" stroke-width="0.5" d="M629.63,244.99c2.21-0.11,4.43-0.22,6.66-0.21
		c5.04,0.62,10.07,1.37,15.11,2.05c5.18,1.46,10.31,3.18,15.61,4.2c6.38,1.35,12.98,2.27,18.88,5.23
		c-4.25,6.88-5.2,15.05-6.52,22.86c-1.02,6.23-1.79,12.55-1.38,18.87c0.74,12.67-0.36,25.34-0.76,38c-1.4,47-1.62,94.02-1.72,141.03
		c-0.05,2.6,0.42,5.3,2.15,7.35c3.74,4.86,7.74,9.52,11.67,14.23c4.05,4.98,10.05,8.71,11.83,15.23c3.18,10.61,6.09,21.47,6.8,32.57
		c-4.36-9.31-7.39-19.2-11.97-28.41c-3.63-7.17-11.08-10.99-16.92-16.08c-6.43-5.18-13.52-11.91-13.02-20.9
		c1.19-19.32,1.12-38.7,1.18-58.06c0-26.63-0.02-53.27,0-79.9c-0.14-14.33,2.56-28.75-0.09-42.99
		c-2.14-14.09-8.87-27.24-18.42-37.75C643.11,255.73,636.07,250.67,629.63,244.99z"/>
	<path fill="#99392F" stroke="#99392F" stroke-width="0.5" d="M751.73,252.88c4.65,0,9.32,0.87,13.54,2.9
		c4.41,2.56,7.47,6.71,10.33,10.82c4.57,10.87,3.49,23.09,7.65,34.1c2.37,8.33,8.32,15.45,8.9,24.3c1.41,16.2-4.3,31.92-4.39,48.05
		c-0.07,6.5,2.8,12.5,3.68,18.86c1.09,7.65,0.79,15.4,0.8,23.1c-0.17,17.08,1.22,34.48,6.99,50.68
		c3.51,10.04,10.74,18.05,15.91,27.2c5.17,9.11,9.38,18.86,11.55,29.15c3.34,15.1,0.47,31.19-7.02,44.62
		c-0.99,1.46-2.22,3.44-4.28,3.09c-0.57-5.94,0.63-11.86,0.75-17.79c0.23-7.96,0.63-16.06-1.02-23.9
		c-1.2-5.92-5.01-10.85-6.59-16.63c-1.3-4.69-1.72-9.64-3.8-14.09c-4.92-10.86-15.33-18.07-20.08-29.02
		c-3.59-7.97-1.74-16.94-3.44-25.3c-1.63-11.63-6.85-22.29-9.71-33.59c-5.1-23.95,1.09-48.28-0.08-72.41
		C770.21,308.07,763.43,279.37,751.73,252.88z"/>
	<path fill="#C04C3D" stroke="#C04C3D" stroke-width="0.5" d="M576.55,268.35c0.37,6.21-1.07,12.29-1.95,18.39
		c-6,42.79-7.85,86.06-7.84,129.23c0.15,28.35,1.81,56.67,2.19,85.02c0.1,18.16,0.68,36.33,0.06,54.48
		c-2.14-1.69-4.24-3.44-6.04-5.48c-3.57-10.51-3.79-21.68-4.19-32.65c-0.12-24.45,0.62-48.89,0.48-73.34
		c0.06-11.01-0.38-22.01-0.57-33.01c0.34-20.39,1.26-40.79,3.55-61.06c2.32-22.93,6.59-45.57,10.69-68.22
		C573.89,277.19,575.36,272.81,576.55,268.35z"/>
	<path fill="#99392F" stroke="#99392F" stroke-width="0.5" d="M893.27,314.92c2.75,0.17,6.06,0.65,7.4,3.46
		c2.48,4.64-0.04,9.87-0.58,14.68c-0.77,2.52,1.43,4.41,2.5,6.44c2.17,3.03,2.11,6.9,2.21,10.46c-0.06,11.39-1.15,22.74-2.53,34.04
		c-2.08,17.59,1.89,35.12,6.49,52c1.61,6.62,2.21,13.47,1.72,20.27c3.4,1.18,5.51,4.21,5.86,7.76c1.46,7.5,0.79,15.19,0.19,22.75
		c-2.3-8.98-3.47-18.36-7.61-26.77c-2.71-5.04-1.75-10.88-2.43-16.33c-1.84-12.67-6.15-24.91-6.74-37.76
		c-0.75-12.28-1.88-24.68-0.13-36.92c0.84-6.97,0.86-14.02,0.41-21.01c-0.23-4.51-1.98-8.71-3.07-13.03
		c-1.04-3.94-0.6-8.06-1.01-12.07C895.66,320.06,894.31,317.52,893.27,314.92z"/>
	<path fill="#F39A4A" stroke="#F39A4A" stroke-width="0.5" d="M828.42,350.11c18.65-0.36,37.3-0.13,55.95-0.11
		c1.35,21.49-6.17,42.59-3.36,64.05c0.65,7.13,1.97,14.19,2.51,21.33c0.07,2.83,0.34,6.14-1.8,8.34c-4.12,0.04-7.82-2.15-11.14-4.36
		c-5.01-3.59-10.08-8.01-11.52-14.29c-1.55-6.27-6.7-11.69-13.03-13.17c-4.98-1.21-8.42,3.33-12.12,5.77
		c-2.94-9.66,0.73-19.5,0.38-29.29c-2.15-0.68-4.4-1.18-6.34-2.36c-1.12-3.22-0.92-6.7-0.99-10.05c0.13-7.21-0.09-14.44,0.21-21.65
		C827.54,352.9,827.98,351.5,828.42,350.11z"/>
	<path fill="#F5B26E" stroke="#F5B26E" stroke-width="0.5" d="M1302.97,416.84c7.29-1.32,14.72-0.84,22.09-0.87
		c92.64,0.02,185.27-0.02,277.9,0c10.06,0.13,20.13-0.34,30.17,0.48c-38.06,2.88-76.11,5.81-114.16,8.72
		c-22.05,1.81-44.16,3.11-66.18,5.27c21.23,2.36,42.54,4.14,63.82,5.99c6.63,0.82,13.31,1.19,19.91,2.32
		c-3.17,0.41-6.36,0.66-9.54,0.59c-56.31-0.63-112.63-0.28-168.94-0.13c-26.7-0.23-53.38,0.64-80.07,0.34
		c-25.68,0.29-51.35,0.13-77.02,0.47c-14.98,0.56-29.59-3.46-44.43-4.72c-10.49-1.9-21.11-2.89-31.56-4.96
		c27.68-0.3,55.37-0.01,83.06-0.13c8.01-0.13,16.1,0.55,24.05-0.84C1255.68,425.08,1279.35,421.09,1302.97,416.84z"/>
	<path fill="#98372D" stroke="#98372D" stroke-width="0.5" d="M846.77,470.55c3.57,5.87,7.07,11.84,10.02,18.06
		c3.49,9.27,8.58,17.82,12.79,26.76c2.72,6.07,7.16,11.69,7.41,18.59c0.78,15.13,1.65,30.27,2.36,45.41
		c0.37,11.37,8.73,20.36,10.41,31.42c-5.14-6.46-9.84-13.26-14.88-19.79c-2.46-3.42-5.75-6.64-6.11-11.07
		c-2.42-17.61-2.36-35.46-3.56-53.16C859.42,507.93,852.41,489.44,846.77,470.55z"/>
	<path fill="#BC4131" stroke="#BC4131" stroke-width="0.5" d="M856.79,488.61c3.08,3.35,4.98,7.52,7.27,11.4
		c5.15,8.87,10.28,17.75,15.42,26.62c2.03,3.59,4.84,7.07,4.79,11.42c0.64,13.98,1.5,27.94,2.14,41.91
		c0.17,11.98,4.47,23.35,6.06,35.14c-1.02-1.37-2.4-2.57-2.71-4.31c-1.68-11.06-10.04-20.05-10.41-31.42
		c-0.71-15.14-1.58-30.28-2.36-45.41c-0.25-6.9-4.69-12.52-7.41-18.59C865.37,506.43,860.28,497.88,856.79,488.61z"/>
	<path fill="#EB6C4D" stroke="#EB6C4D" stroke-width="0.5" d="M1972.11,523.9c5.94-0.75,11.94-1.42,17.94-1.05
		c3.17-0.15,4.98,2.74,6.94,4.75c1.89,20.83,4.81,41.56,8.41,62.16c1.14,5.81-1.29,11.38-2.7,16.89
		c-2.86,10.81-5.95,21.56-8.53,32.44c-1.51,6.54-3.95,13.05-3.37,19.87c0.77,10.31,0.82,20.67,1.9,30.96
		c4.72-7.88,8.76-16.16,13.2-24.21c4.42-7.91,5.44-17.02,7.28-25.73c2.93-14.48,5.71-28.99,8.36-43.53
		c3.29-15.17,2.9-30.79,3.9-46.2c1.77,1,3.22,2.53,3.72,4.58c2.54,8.19,5.22,16.52,5.33,25.19c0.15,6.79-2.08,13.34-2.45,20.09
		c-0.34,7.62,0.87,15.3,3.44,22.48c3.65,10.04,4.29,20.81,5.51,31.34c0.51,5.33,0.97,10.7,0.61,16.06
		c-0.42,6.26-1.97,14.3,3.78,18.67c6.24,4.39,12.64,8.59,18.56,13.43c5.42,4.56,12.25,6.71,18.6,9.6
		c-52.98,2.48-105.99,4.42-158.99,6.69c-8.24,0.64-16.61-0.05-24.74,1.67c10.39,0.87,20.82-0.2,31.24-0.18
		c46-1.01,92.01-2.02,138.01-3.04c7.86-0.46,15.85,0.39,23.63-1.24c10.28,4.38,20.56,8.9,30.26,14.49
		c4.83,2.69,7.29,7.95,11.61,11.25c7.29,5.76,15.12,10.85,23.2,15.43c-7.24,1-14.56,0.91-21.84,1.29
		c-48.64,2.02-97.29,4.02-145.93,6.02c-21.05,0.74-42.07,2.03-63.12,2.43c11.87,0.66,23.73-0.25,35.6-0.34
		c42.52-0.74,84.99-2.83,127.52-3.28c25.9-0.32,51.81-0.46,77.71-1.35c7.32,1.71,14.86,0.83,22.31,1
		c17.27-0.04,34.55,0.42,51.83,0.48c50.73,0.82,101.46,2.35,152.16,4.58v2.24c-10.96-1.12-21.98-0.51-32.96-0.65
		c-36.67-0.45-73.35-0.05-110.02-0.02c-28.01,1.07-56.06,0.31-84.06,1.53c-11.8,0.25-23.6,0.17-35.37,0.76
		c-93.97,2.49-187.9,7.19-281.57,15.16c-93.96,8.13-187.74,19.37-280.45,36.86c-7.17,1.05-14.28,3.76-21.6,2.68
		c-73.4-9.14-146.89-17.59-220.27-26.87c11.52-1.39,23.13-1.14,34.69-1.86c75.27-3.17,150.52-7.03,225.75-11.04
		c14.93-1.04,29.95-1,44.78-3.25c12.58-0.51,24.53-4.97,37.03-6.1c7.65-0.72,15.17-2.3,22.69-3.84c27.14,0.94,54.29,1.51,81.44,2.34
		c9.47,0.41,18.95-0.29,28.4-1.02c-10.48-1.1-21.03-1.04-31.53-1.63c-19.83-0.96-39.69-1.34-59.49-2.69
		c10.94-2.93,22.14-4.8,33.14-7.57c10.33-1.29,20.91-2.09,30.59-6.32c6.73-2.87,13.21-6.54,18.76-11.34
		c3.78-3.09,2.83-9.16,6.9-11.99c1.01-0.8,2.08-1.53,3.17-2.26c0.55-3.19,0.4-7.21,3.67-9c9.77-6.15,20.58-10.49,30.32-16.71
		c3.99-2.59,6.94-6.63,11.42-8.52c3.78-1.9,9.03-3.54,9.68-8.44c1.22-8.81,0.6-17.76,1.53-26.61c0.16,0.46,0.47,1.37,0.63,1.82
		c1.31-15.42,2.57-30.84,3.65-46.27c0.5-8.25,1.5-16.48,1.5-24.75c2.57,0.63,6.11,1.62,6.53,4.71c0.56,8.22-0.72,16.53,0.62,24.71
		c1.08,5.1,4.06,9.49,6.59,13.97c1.27-0.83,2.64-1.56,3.83-2.55c1.14-2.54,1.3-5.39,1.74-8.1c0.06,0.63,0.19,1.89,0.25,2.53
		c6.73-20.54,12.13-41.51,18.64-62.11c3.22-5.75,9.58-8.86,13.46-14.15l-1.81,0.65c5.38-3.39,6.4-10.51,11.49-14.19
		c3.11-1.6,6.88-1.24,9.99-2.93c4.01-2.2,7.45-5.32,11.6-7.32c3.7-0.37,7.4-0.87,11.07-1.56c-8.45,5.8-17.12,12.2-22.05,21.42
		c-3.07,5.1-2.26,11.14-1.43,16.72c1.76,12.87-3.54,25.2-3.96,37.96c-0.41,8.7-1.71,17.31-2.64,25.96c-2.01,14.73,2,30.1-3.03,44.44
		c-3.5,6.82-10.13,11.26-15.71,16.27c-6.73,5.03-10.44,12.94-12.83,20.79c3.5-3.06,6.38-6.73,9.49-10.16
		c3.06-3.42,7.68-4.54,11.69-6.43c4.46-2.06,9.05-4.02,12.98-7.04c2.07-1.54,2.2-4.34,2.67-6.67c1.65-13.27,3.28-26.7,1.83-40.06
		c-1.04-8.29,3.04-15.87,6.65-23c3.69-6.99,5.89-14.61,9.12-21.81c2.62-5.39,2.66-11.54,1.64-17.34
		c-2.32-13.31,0.22-27.1,5.63-39.36C1962.08,531.88,1965.76,525.87,1972.11,523.9 M1851.95,721.54c5.01,0.34,10.03-0.09,15.06-0.27
		c9.94-0.57,19.93-0.09,29.86-0.88c-1.26-0.46-2.54-0.71-3.83-0.76C1879.33,720.03,1865.64,720.8,1851.95,721.54z"/>
	<path fill="#98372D" stroke="#98372D" stroke-width="0.5" d="M1959.42,525.89c4.19-0.88,8.45-1.4,12.69-1.99
		c-6.35,1.97-10.03,7.98-12.64,13.68c-5.41,12.26-7.95,26.05-5.63,39.36c1.02,5.8,0.98,11.95-1.64,17.34
		c-3.23,7.2-5.43,14.82-9.12,21.81c-3.61,7.13-7.69,14.71-6.65,23c1.45,13.36-0.18,26.79-1.83,40.06c-0.47,2.33-0.6,5.13-2.67,6.67
		c-3.93,3.02-8.52,4.98-12.98,7.04c-4.01,1.89-8.63,3.01-11.69,6.43c-3.11,3.43-5.99,7.1-9.49,10.16
		c2.39-7.85,6.1-15.76,12.83-20.79c5.58-5.01,12.21-9.45,15.71-16.27c5.03-14.34,1.02-29.71,3.03-44.44
		c0.93-8.65,2.23-17.26,2.64-25.96c0.42-12.76,5.72-25.09,3.96-37.96c-0.83-5.58-1.64-11.62,1.43-16.72
		C1942.3,538.09,1950.97,531.69,1959.42,525.89z"/>
	<path fill="#BC4131" stroke="#BC4131" stroke-width="0.5" d="M1996.99,527.6h0.19c3.18,4,5.94,8.32,8.59,12.7
		c1.4,2.1,2.71,4.67,5.31,5.5c4.68,1.78,9.61,2.83,14.36,4.45c-1,15.41-0.61,31.03-3.9,46.2c-2.65,14.54-5.43,29.05-8.36,43.53
		c-1.84,8.71-2.86,17.82-7.28,25.73c-4.44,8.05-8.48,16.33-13.2,24.21c-1.08-10.29-1.13-20.65-1.9-30.96
		c-0.58-6.82,1.86-13.33,3.37-19.87c2.58-10.88,5.67-21.63,8.53-32.44c1.41-5.51,3.84-11.08,2.7-16.89
		C2001.8,569.16,1998.88,548.43,1996.99,527.6z"/>
	<path fill="#B34134" stroke="#B34134" stroke-width="0.5" d="M1900.64,559.64c4.58-3.07,9.68-5.32,14.63-7.75l1.81-0.65
		c-3.88,5.29-10.24,8.4-13.46,14.15c-6.51,20.6-11.91,41.57-18.64,62.11c-0.06-0.64-0.19-1.9-0.25-2.53
		c1.88-16.94,4.37-33.89,8.77-50.38C1895.2,569.39,1896.42,563.47,1900.64,559.64z"/>
	<path fill="#B34134" stroke="#B34134" stroke-width="0.5" d="M1863.17,591.77c0.57,0.12,1.69,0.34,2.25,0.46
		c0,8.27-1,16.5-1.5,24.75c-1.08,15.43-2.34,30.85-3.65,46.27c-0.16-0.45-0.47-1.36-0.63-1.82c0.04-4.91,0.29-9.81,0.55-14.71
		c0.82-13.93,1.31-27.87,2.04-41.79C1862.45,600.53,1862.79,596.15,1863.17,591.77z"/>
	<path fill="#99392F" stroke="#99392F" stroke-width="0.5" d="M485.41,605.54c0.3-0.22,0.89-0.68,1.19-0.91
		c64.79,3.74,129.6,7.08,194.41,10.59c82.98,4.36,165.96,8.85,248.97,12.59c11.72,0.4,23.45,1.25,35.18,0.89
		c-9.01,1.03-18.08,1.44-27.11,2.24c-12.7,0.84-25.39,2.74-38.13,1.58c-65.28-2.42-130.54-5.8-195.86-7.16
		c-51.36-1.33-102.72-2.73-154.06-4.64c-23.38-1.03-46.81-1.55-70.1-3.96C478.42,612,482.11,608.32,485.41,605.54z"/>
	<path fill="#EA864C" stroke="#EA864C" stroke-width="0.5" d="M1428.19,623.9c16.95,0.57,33.87,1.83,50.79,2.95
		c0.13,7.55-0.1,15.1,0.17,22.65c2,0.68,4.01,1.41,6.08,1.99c-0.25,9.45-0.2,18.9-0.15,28.36c1.54,0.21,3.1,0.43,4.68,0.67
		c2.12,12.46,4.79,24.98,10.16,36.51c2.85,6.03,6.48,12.13,12.41,15.6c8.5,5.06,18.09,7.9,27.57,10.5
		c7.59,1.84,15.17,4.11,23.01,4.56c52.39,1.53,104.77,3.68,157.12,6.17c18.06,0.68,36.09,2.07,54.16,2.44
		c-9.68,4.23-20.26,5.03-30.59,6.32c-11,2.77-22.2,4.64-33.14,7.57c-6.45-0.37-12.69,1.25-18.82,3c-7.52,1.54-15.04,3.12-22.69,3.84
		c-12.5,1.13-24.45,5.59-37.03,6.1c-14.83,2.25-29.85,2.21-44.78,3.25c-75.23,4.01-150.48,7.87-225.75,11.04
		c-11.56,0.72-23.17,0.47-34.69,1.86c-5.92-0.47-11.71-1.84-17.36-3.63c-7.73-2.47-15.53-4.82-22.95-8.14
		c-8.94-3.78-18.4-6.09-27.37-9.75c-13.02-5.04-26.08-10.01-39.34-14.39c-6.98-2.41-14.42-2.36-21.61-3.67
		c-9.83-1.75-19.57-3.97-29.23-6.51c36.05-0.88,72.08-2.67,108.07-4.85c5.23,0.19,8.63-4.16,12.75-6.6
		c11.25-6.87,24.15-10.81,37.22-12.18c16.79-0.97,34.92-6.27,45.43-20.29c4.49-7.23,3.71-16.32,6.91-24.05
		c6.81-2.82,14.54-2.27,21.44-4.87c3.61-1.51,6.28-5,10.32-5.53c5.66-0.69,11.4-0.54,17.1-0.99c0.02-1.3,0.05-2.58,0.09-3.86
		C1428.32,654.61,1428.09,639.25,1428.19,623.9z"/>
	<path fill="#E79D4A" stroke="#E79D4A" stroke-width="0.5" d="M132.49,628.45c7.85-0.46,15.73-0.3,23.59-0.19
		c-0.08,8.74-1.9,17.34-1.88,26.09c1.77,0.76,3.53,1.54,5.3,2.32c0.54,9.44,0,18.9,0.04,28.36c0.13,1.79-0.04,3.75,0.84,5.4
		c6.85,3.18,14.38,4.55,21.46,7.11c3.65,1.39,4.9,6.26,9.05,6.76c6.32,1.3,12.82,1.48,19.15,2.76c5.75,0.96,8.07,7.43,13.3,9.45
		c5.62,2.08,11.57,3.11,17.29,4.92c5.63,1.81,11.59,1.38,17.4,1.03c18.11-0.44,36.23-0.59,54.34-0.45
		c-5.43,5.87-12.61,9.6-18.97,14.31c-12.05,8.18-23.95,17-37.58,22.38c-6.61,0.28-13.17,1.21-19.63,2.59
		c-54.37,1.01-108.73,2.75-163.05,5.09c-24.37,1.15-48.75,2.09-73.14,1.87v-43.3c13-0.25,26-0.04,39-0.37
		c5.36-0.2,10.2-2.73,15.15-4.51c4.05-1.63,8.35-2.71,12.19-4.82c5.27-3.37,6.96-10.19,12.05-13.71c7.52-2.75,15.78-2.68,23.36-5.23
		c0.89-1.66,1.09-3.57,1.41-5.38c1.15-9.47,2.07-18.98,3.82-28.36c3.89-1.95,6.69-6.28,11.45-6.07c0.88,3.57,2.06,7.06,3.53,10.44
		c0.71-0.03,2.12-0.09,2.83-0.12c0.17-3.19,0.34-6.38,0.5-9.57c1.46-0.35,2.92-0.69,4.38-1.02
		C131.07,647.02,131.32,637.69,132.49,628.45z"/>
	<path fill="#E7A848" stroke="#E7A848" stroke-width="0.5" d="M2319.64,653.75c10.17-0.52,20.21,2.25,30.38,2.23
		c4.4-0.1,8.5-2.01,12.86-2.4c4.4,4.8,5.23,11.77,8.26,17.43c3.03,5.66,3,12.15,3.03,18.41c-0.16,3.14-0.37,6.29-0.52,9.44
		c-26.94,0.23-53.89,0.17-80.83,0.07c0.32-6.11,0.92-12.18,1.77-18.22c0.6-6.85,1.03-13.72,1.71-20.56
		C2303.98,657.69,2311.73,655.33,2319.64,653.75z"/>
	<path fill="#E5AC48" stroke="#E5AC48" stroke-width="0.5" d="M2266.09,663.19c2.84,0.98,5.83,1.77,8.39,3.45
		c1.36,7.2-0.48,14.64,1.15,21.86c0.67,10.25-0.02,20.53,0.61,30.78c4.71-2.38,9.43-5.13,12.82-9.28c2.57-3.09,3.27-7.21,3.76-11.07
		c26.94,0.1,53.89,0.16,80.83-0.07c0.15-3.15,0.36-6.3,0.52-9.44c0.17,0.4,0.53,1.21,0.7,1.62c0.72,6.3-0.21,12.65,0.39,18.97
		c0.61,6.99,0.79,14.01,0.72,21.03c0.15,2.68-0.19,5.89,2,7.9c4.78,4.77,9.89,9.2,15.02,13.6v15.05
		c-50.7-2.23-101.43-3.76-152.16-4.58c5.68-5.73,10.89-11.89,16.11-18.04c2.23-2.73,4.87-5.25,6.36-8.49
		c0.95-3.07,0.68-6.34,0.75-9.51c-0.24-10.33,0.86-20.62,0.88-30.95c0-5.86-0.04-11.73,0.48-17.57
		C2266.08,673.39,2266.27,668.29,2266.09,663.19z"/>
	<path fill="#99392F" stroke="#99392F" stroke-width="0.5" d="M842.47,678.61c58.64-2.45,117.28-5,175.92-7.53
		c1.12,0.4,2.26,0.8,3.41,1.2c3.37,1.2,6.78,2.29,10.27,3.13c-16.33,1.38-32.75,0.89-49.11,1.61c-61.34,1.47-122.68,3-184.02,4.48
		c-10.13,0.21-20.29,0.9-30.4-0.04C793.19,680.8,817.83,679.59,842.47,678.61z"/>
	<path fill="#C34836" stroke="#C34836" stroke-width="0.5" d="M737.49,682.75c6.44-1.3,13.04-0.52,19.56-0.8
		c3.78-0.05,7.71-0.89,11.36,0.51c-6.75,0.95-13.57,0.4-20.35,0.57C744.53,683.12,740.99,683.15,737.49,682.75z"/>
	<path fill="#C74A38" stroke="#C74A38" stroke-width="0.5" d="M716.34,683.41c5.43-0.42,11.01-1.08,16.39,0.14
		C727.29,684.21,721.74,684.44,716.34,683.41z"/>
	<path fill="#99392F" stroke="#99392F" stroke-width="0.5" d="M343.72,700.91c4.34-1.12,8.82-1.73,13.31-1.62
		c155.66,6.73,311.32,13.45,467,19.69c7.8,0.42,15.63-0.08,23.43,0.55c-11.82,0.74-23.65,0.14-35.47-0.23
		C650.5,715.71,489,712,327.5,708.67C332.81,705.89,338.18,703.22,343.72,700.91z"/>
	<path fill="#B34134" stroke="#B34134" stroke-width="0.5" d="M1923.55,718.38c53-2.27,106.01-4.21,158.99-6.69
		c3.08,1.21,6.09,2.58,9.15,3.9c-7.78,1.63-15.77,0.78-23.63,1.24c-46,1.02-92.01,2.03-138.01,3.04
		c-10.42-0.02-20.85,1.05-31.24,0.18C1906.94,718.33,1915.31,719.02,1923.55,718.38z"/>
	<path fill="#C14838" stroke="#C14838" stroke-width="0.5" d="M848.35,719.99c4.53-0.61,9.09-0.03,13.64,0.01
		c4.84,0.1,9.75-0.45,14.52,0.66c-6.16,0.61-12.35,0.27-18.52,0.33C854.76,720.92,851.4,721.28,848.35,719.99z"/>
	<path fill="#B34134" stroke="#B34134" stroke-width="0.5" d="M1851.95,721.54c13.69-0.74,27.38-1.51,41.09-1.91
		c1.29,0.05,2.57,0.3,3.83,0.76c-9.93,0.79-19.92,0.31-29.86,0.88C1861.98,721.45,1856.96,721.88,1851.95,721.54z"/>
	<path fill="#B34134" stroke="#B34134" stroke-width="0.5" d="M2134.92,758.05c7.28-0.38,14.6-0.29,21.84-1.29
		c3.29,1.61,6.63,3.16,9.94,4.77c-25.9,0.89-51.81,1.03-77.71,1.35c-42.53,0.45-85,2.54-127.52,3.28c-11.87,0.09-23.73,1-35.6,0.34
		c21.05-0.4,42.07-1.69,63.12-2.43C2037.63,762.07,2086.28,760.07,2134.92,758.05z"/>
	<path fill="#99392F" stroke="#99392F" stroke-width="0.5" d="M236.19,761.29c6.46-1.38,13.02-2.31,19.63-2.59
		c46.7,2.31,93.46,3.03,140.21,3.58c113.29,1.86,226.6,3.52,339.88,6.36c13.96,0.61,27.99,0.32,41.89,1.96
		c-7.17,1.57-14.55,1.16-21.83,1.5c-42,0.96-84,0.99-126.01,1.41c-19.01-0.27-38.01,0.72-57.02,0.43
		c-106.32-1.51-212.63-4.64-318.93-7.46c-10.92-0.15-21.82,0.97-32.63,2.46C226.11,766.01,230.95,763.21,236.19,761.29z"/>
	<path fill="#EB6C4D" stroke="#EB6C4D" stroke-width="0.5" d="M73.14,766.38c54.32-2.34,108.68-4.08,163.05-5.09
		c-5.24,1.92-10.08,4.72-14.81,7.65c-9.72,5.56-20.09,9.98-30.61,13.8c-19.7,5.64-39,12.56-58.17,19.8
		c-5.39,1.94-10.66,4.83-16.55,4.75c-26.69-0.26-53.38-0.06-80.07-0.12c-11.99-0.1-23.99,0.48-35.98,0.08v-39
		C24.39,768.47,48.77,767.53,73.14,766.38z"/>
	<path fill="#B34134" stroke="#B34134" stroke-width="0.5" d="M1691.64,773.19c6.13-1.75,12.37-3.37,18.82-3
		c19.8,1.35,39.66,1.73,59.49,2.69c10.5,0.59,21.05,0.53,31.53,1.63c-9.45,0.73-18.93,1.43-28.4,1.02
		C1745.93,774.7,1718.78,774.13,1691.64,773.19z"/>
	<path fill="#99392F" stroke="#99392F" stroke-width="0.5" d="M1243.05,780.06c5.28-0.99,10.54-2.48,15.97-2.3
		c8.97,3.66,18.43,5.97,27.37,9.75c-8.69-0.26-16.98,2.7-25.28,4.77c-17.15,4.74-34.49,8.8-52.06,11.57
		c-25.05,4.71-50.61,5.06-75.99,5.81c-53.35,1.13-106.7,1.35-160.05,1.34c-46.02-0.09-92.03,0.37-138.04-0.78
		c-32.52-0.76-65.04-1.71-97.5-3.85c-7.44-0.65-14.99-0.8-22.24-2.72c7.37-2.27,15.22-1.28,22.82-1.66
		c32.75-0.44,65.5-0.37,98.25-0.62c103.24-0.59,206.5-2.51,309.68-6.35c10-0.58,20.11-0.16,30.02-1.91
		C1198.42,789.13,1220.69,784.38,1243.05,780.06z"/>
</g>
</svg>
